<svg version="1.1" viewBox="0.0 0.0 151.0 41.0" fill="none" stroke="none" stroke-linecap="square" stroke-miterlimit="10" xmlns:xlink="http://www.w3.org/1999/xlink" xmlns="http://www.w3.org/2000/svg"><clipPath id="p.0"><path d="m0 0l151.0 0l0 41.0l-151.0 0l0 -41.0z" clip-rule="nonzero"/></clipPath><g clip-path="url(#p.0)"><path fill="#000000" fill-opacity="0.0" d="m0 0l151.0 0l0 41.0l-151.0 0z" fill-rule="evenodd"/><path fill="#e09794" d="m-4.9566154E-7 1.0262456l0 0.82912886l2.7314208 0.8381413l0 35.43625l-2.7314208 0.82912827l0 0.82912827l12.961295 0l0 -0.82912827l-2.724018 -0.82912827l0 -35.43625l2.724018 -0.8381413l0 -0.82912886z" fill-rule="evenodd"/><path fill="#e09794" d="m28.879322 12.931456c0.7599621 0 1.5495338 0.36950302 2.3687115 1.1085091c0.36024284 0.330451 0.70814705 0.69995403 1.0437145 1.1085091l0 19.106016c-0.36517525 0.9192505 -0.71308136 1.6552505 -1.0437145 2.208004c-0.9129391 1.4780121 -1.929512 2.2170181 -3.049715 2.2170181c-0.97215843 0 -1.7839375 -0.9312668 -2.4353333 -2.7938042c-0.6513958 -1.8625336 -0.97709274 -5.1760426 -0.97709274 -9.940533c0 -4.9807835 0.35530663 -8.393431 1.0659199 -10.23794c0.71554947 -1.8505192 1.7247181 -2.7757797 3.0275097 -2.7757797zm0.6810055 -11.9052105l0 0.82912886l2.7314205 0.8381413l0 10.7967005c-0.48361206 -0.48065376 -0.9524193 -0.8501568 -1.4064236 -1.1085091c-1.0955276 -0.73900604 -2.3711777 -1.10851 -3.82695 -1.10851c-3.0595856 0 -5.492449 1.2647219 -7.2985916 3.7941666c-1.8012104 2.5294456 -2.7018127 6.1553802 -2.7018127 10.877811c0 3.1362705 0.40959167 5.8039017 1.2287693 8.002895c0.8191776 2.1929893 1.9245777 3.8542519 3.3161964 4.9837875c1.3965511 1.1235275 2.9880295 1.6852951 4.774435 1.6852951c2.033144 0 3.7307205 -0.8291321 5.0927296 -2.4873886c0.6069832 -0.73900604 1.1078682 -1.5711403 1.5026512 -2.496399c0.24180603 0.85316086 0.5749092 1.556118 0.9993019 2.1088715c1.0017662 1.3638573 2.413124 2.045784 4.23407 2.045784l4.0934334 0l0 -0.82912827l-2.7314224 -0.82912827l0 -32.11973c0 -3.3225234 -1.3644753 -4.9837856 -4.0934296 -4.9837856z" fill-rule="evenodd"/><path fill="#e09794" d="m56.39545 12.381707c0.94255066 0 1.7469254 0.7119694 2.413124 2.1359081c0.66620255 1.4179296 0.9993019 3.6589823 0.9993019 6.723153c0 1.0334091 -0.076488495 2.009737 -0.2294693 2.9289894c-0.118434906 0.6308594 -0.19492722 1.0394154 -0.2294693 1.225668c-0.5724373 0.14419746 -1.1177368 0.23431969 -1.635891 0.27036858c-1.2139664 0.1862526 -2.790638 0.2793808 -4.7300224 0.2793808c0 -9.042311 1.1374741 -13.563468 3.412426 -13.563468zm0 -1.10851c-2.1811905 0 -4.1131706 0.59180737 -5.7959404 1.7754183c-1.6827736 1.1776037 -2.9954338 2.8749142 -3.9379845 5.0919333c-0.93761444 2.21101 -1.4064217 4.8125515 -1.4064217 7.8046265c0 4.5782337 1.0757904 8.168121 3.2273674 10.769665c2.1515808 2.6015396 5.16922 3.9023132 9.052921 3.9023132c1.6975784 0 3.1977615 -0.3965416 4.500553 -1.189621c1.3027916 -0.7930794 2.3168983 -1.8535233 3.0423164 -3.1813316c0.7303467 -1.3278084 1.0955276 -2.7307167 1.0955276 -4.208729l-1.139946 0c0 1.1776009 -0.29608917 2.3311691 -0.8882675 3.4607086c-0.5872421 1.1235313 -1.3891487 2.0277634 -2.4057198 2.712696c-1.016571 0.6849327 -2.1145668 1.0273972 -3.293991 1.0273972c-1.7025108 0 -3.0398445 -0.91324234 -4.012005 -2.7397308c-0.9672241 -1.8324966 -1.4508362 -4.8876553 -1.4508362 -9.165478c3.2471085 0 6.462143 -0.2793808 9.6451 -0.8381424c1.514988 -0.21629333 2.9238777 -0.49266815 4.226673 -0.82912827l0.22946167 -0.93727684c0.15298462 -0.66690826 0.2294693 -1.4599876 0.2294693 -2.3792381c0 -2.0307655 -0.44906616 -3.8842888 -1.3471985 -5.5605717c-0.89320374 -1.682292 -2.1663857 -3.0221167 -3.8195496 -4.019473c-1.6531639 -0.9973583 -3.5703392 -1.4960375 -5.7515297 -1.4960375z" fill-rule="evenodd"/><path fill="#e09794" d="m85.05093 26.224556l0 8.029934c-0.36517334 0.9192505 -0.71554565 1.6552505 -1.051117 2.208004c-0.90800476 1.4780121 -1.9221115 2.2170181 -3.0423126 2.2170181c-0.78956604 0 -1.4434357 -0.4986801 -1.961586 -1.4960365c-0.51322174 -0.9973564 -0.7698364 -2.5294418 -0.7698364 -4.5962563c0 -1.3638592 0.1505127 -2.748743 0.4515381 -4.1546574c0.15298462 -0.6969509 0.3059616 -1.2497044 0.4589386 -1.6582584c0.33063507 -0.03604889 0.9672241 -0.1291771 1.9097748 -0.2793808c1.2731857 -0.18024445 2.6080475 -0.27036667 4.0046005 -0.27036667zm-4.0934296 -14.951359c-2.793106 0 -4.8953323 0.59180737 -6.306694 1.7754183c-1.4064255 1.1776037 -2.1096344 2.6165638 -2.1096344 4.3168764c0 1.2557106 0.31089783 2.2620811 0.9326782 3.0191116c0.621788 0.75102234 1.4483719 1.1265335 2.4797516 1.1265335c0.33062744 0 0.7402191 -0.03604889 1.2287674 -0.10814667l0.59217834 -0.16222191l0 -8.309313l0.63658905 -0.2793808c0.45400238 -0.1802454 0.9992981 -0.27036762 1.6358948 -0.27036762c1.6975708 0 2.9559479 0.77505493 3.7751312 2.3251657c0.81918335 1.5501099 1.2287674 4.373955 1.2287674 8.471535l0 1.6582584c-2.5167542 0.1502018 -5.4134903 0.5557537 -8.690208 1.2166557c-1.4557724 0.29439926 -2.8054428 0.6278534 -4.049019 1.0003624c-0.33063507 0.55275345 -0.6020508 1.1625824 -0.8142395 1.8294907c-0.51815796 1.3999081 -0.77723694 2.8208408 -0.77723694 4.262806c0 2.174961 0.7278824 3.965397 2.1836548 5.371311c1.4557724 1.39991 3.5333328 2.0998611 6.2326736 2.0998611c2.0282135 0 3.7257843 -0.8291321 5.0927277 -2.4873886c0.5773773 -0.73900604 1.0782623 -1.5711403 1.502655 -2.496399c0.24180603 0.85316086 0.5749054 1.556118 0.9992981 2.1088715c1.00177 1.3638573 2.4106598 2.045784 4.2266693 2.045784l4.0934296 0l0 -0.82912827l-2.7240143 -0.82912827l0 -14.951357c0 -2.3251667 -0.44906616 -4.382967 -1.3472061 -6.1734066c-0.89320374 -1.7904377 -2.1959915 -3.193349 -3.908371 -4.2087297c-1.7123871 -1.0153828 -3.7504654 -1.5230742 -6.1142426 -1.5230742z" fill-rule="evenodd"/><path fill="#e09794" d="m97.78363 1.0262456l0 0.82912886l2.7240143 0.8381413l0 35.43625l-2.7240143 0.82912827l0 0.82912827l12.731827 0l0 -0.82912827l-2.7314224 -0.82912827l0 -32.11973c0 -3.3225234 -1.3644791 -4.9837856 -4.0934296 -4.9837856z" fill-rule="evenodd"/><path stroke="#e09794" stroke-width="1.0" stroke-linejoin="round" stroke-linecap="butt" d="m-4.9566154E-7 1.0262456l0 0.82912886l2.7314208 0.8381413l0 35.43625l-2.7314208 0.82912827l0 0.82912827l12.961295 0l0 -0.82912827l-2.724018 -0.82912827l0 -35.43625l2.724018 -0.8381413l0 -0.82912886z" fill-rule="evenodd"/><path stroke="#e09794" stroke-width="1.0" stroke-linejoin="round" stroke-linecap="butt" d="m28.879322 12.931456c0.7599621 0 1.5495338 0.36950302 2.3687115 1.1085091c0.36024284 0.330451 0.70814705 0.69995403 1.0437145 1.1085091l0 19.106016c-0.36517525 0.9192505 -0.71308136 1.6552505 -1.0437145 2.208004c-0.9129391 1.4780121 -1.929512 2.2170181 -3.049715 2.2170181c-0.97215843 0 -1.7839375 -0.9312668 -2.4353333 -2.7938042c-0.6513958 -1.8625336 -0.97709274 -5.1760426 -0.97709274 -9.940533c0 -4.9807835 0.35530663 -8.393431 1.0659199 -10.23794c0.71554947 -1.8505192 1.7247181 -2.7757797 3.0275097 -2.7757797zm0.6810055 -11.9052105l0 0.82912886l2.7314205 0.8381413l0 10.7967005c-0.48361206 -0.48065376 -0.9524193 -0.8501568 -1.4064236 -1.1085091c-1.0955276 -0.73900604 -2.3711777 -1.10851 -3.82695 -1.10851c-3.0595856 0 -5.492449 1.2647219 -7.2985916 3.7941666c-1.8012104 2.5294456 -2.7018127 6.1553802 -2.7018127 10.877811c0 3.1362705 0.40959167 5.8039017 1.2287693 8.002895c0.8191776 2.1929893 1.9245777 3.8542519 3.3161964 4.9837875c1.3965511 1.1235275 2.9880295 1.6852951 4.774435 1.6852951c2.033144 0 3.7307205 -0.8291321 5.0927296 -2.4873886c0.6069832 -0.73900604 1.1078682 -1.5711403 1.5026512 -2.496399c0.24180603 0.85316086 0.5749092 1.556118 0.9993019 2.1088715c1.0017662 1.3638573 2.413124 2.045784 4.23407 2.045784l4.0934334 0l0 -0.82912827l-2.7314224 -0.82912827l0 -32.11973c0 -3.3225234 -1.3644753 -4.9837856 -4.0934296 -4.9837856z" fill-rule="evenodd"/><path stroke="#e09794" stroke-width="1.0" stroke-linejoin="round" stroke-linecap="butt" d="m56.39545 12.381707c0.94255066 0 1.7469254 0.7119694 2.413124 2.1359081c0.66620255 1.4179296 0.9993019 3.6589823 0.9993019 6.723153c0 1.0334091 -0.076488495 2.009737 -0.2294693 2.9289894c-0.118434906 0.6308594 -0.19492722 1.0394154 -0.2294693 1.225668c-0.5724373 0.14419746 -1.1177368 0.23431969 -1.635891 0.27036858c-1.2139664 0.1862526 -2.790638 0.2793808 -4.7300224 0.2793808c0 -9.042311 1.1374741 -13.563468 3.412426 -13.563468zm0 -1.10851c-2.1811905 0 -4.1131706 0.59180737 -5.7959404 1.7754183c-1.6827736 1.1776037 -2.9954338 2.8749142 -3.9379845 5.0919333c-0.93761444 2.21101 -1.4064217 4.8125515 -1.4064217 7.8046265c0 4.5782337 1.0757904 8.168121 3.2273674 10.769665c2.1515808 2.6015396 5.16922 3.9023132 9.052921 3.9023132c1.6975784 0 3.1977615 -0.3965416 4.500553 -1.189621c1.3027916 -0.7930794 2.3168983 -1.8535233 3.0423164 -3.1813316c0.7303467 -1.3278084 1.0955276 -2.7307167 1.0955276 -4.208729l-1.139946 0c0 1.1776009 -0.29608917 2.3311691 -0.8882675 3.4607086c-0.5872421 1.1235313 -1.3891487 2.0277634 -2.4057198 2.712696c-1.016571 0.6849327 -2.1145668 1.0273972 -3.293991 1.0273972c-1.7025108 0 -3.0398445 -0.91324234 -4.012005 -2.7397308c-0.9672241 -1.8324966 -1.4508362 -4.8876553 -1.4508362 -9.165478c3.2471085 0 6.462143 -0.2793808 9.6451 -0.8381424c1.514988 -0.21629333 2.9238777 -0.49266815 4.226673 -0.82912827l0.22946167 -0.93727684c0.15298462 -0.66690826 0.2294693 -1.4599876 0.2294693 -2.3792381c0 -2.0307655 -0.44906616 -3.8842888 -1.3471985 -5.5605717c-0.89320374 -1.682292 -2.1663857 -3.0221167 -3.8195496 -4.019473c-1.6531639 -0.9973583 -3.5703392 -1.4960375 -5.7515297 -1.4960375z" fill-rule="evenodd"/><path stroke="#e09794" stroke-width="1.0" stroke-linejoin="round" stroke-linecap="butt" d="m85.05093 26.224556l0 8.029934c-0.36517334 0.9192505 -0.71554565 1.6552505 -1.051117 2.208004c-0.90800476 1.4780121 -1.9221115 2.2170181 -3.0423126 2.2170181c-0.78956604 0 -1.4434357 -0.4986801 -1.961586 -1.4960365c-0.51322174 -0.9973564 -0.7698364 -2.5294418 -0.7698364 -4.5962563c0 -1.3638592 0.1505127 -2.748743 0.4515381 -4.1546574c0.15298462 -0.6969509 0.3059616 -1.2497044 0.4589386 -1.6582584c0.33063507 -0.03604889 0.9672241 -0.1291771 1.9097748 -0.2793808c1.2731857 -0.18024445 2.6080475 -0.27036667 4.0046005 -0.27036667zm-4.0934296 -14.951359c-2.793106 0 -4.8953323 0.59180737 -6.306694 1.7754183c-1.4064255 1.1776037 -2.1096344 2.6165638 -2.1096344 4.3168764c0 1.2557106 0.31089783 2.2620811 0.9326782 3.0191116c0.621788 0.75102234 1.4483719 1.1265335 2.4797516 1.1265335c0.33062744 0 0.7402191 -0.03604889 1.2287674 -0.10814667l0.59217834 -0.16222191l0 -8.309313l0.63658905 -0.2793808c0.45400238 -0.1802454 0.9992981 -0.27036762 1.6358948 -0.27036762c1.6975708 0 2.9559479 0.77505493 3.7751312 2.3251657c0.81918335 1.5501099 1.2287674 4.373955 1.2287674 8.471535l0 1.6582584c-2.5167542 0.1502018 -5.4134903 0.5557537 -8.690208 1.2166557c-1.4557724 0.29439926 -2.8054428 0.6278534 -4.049019 1.0003624c-0.33063507 0.55275345 -0.6020508 1.1625824 -0.8142395 1.8294907c-0.51815796 1.3999081 -0.77723694 2.8208408 -0.77723694 4.262806c0 2.174961 0.7278824 3.965397 2.1836548 5.371311c1.4557724 1.39991 3.5333328 2.0998611 6.2326736 2.0998611c2.0282135 0 3.7257843 -0.8291321 5.0927277 -2.4873886c0.5773773 -0.73900604 1.0782623 -1.5711403 1.502655 -2.496399c0.24180603 0.85316086 0.5749054 1.556118 0.9992981 2.1088715c1.00177 1.3638573 2.4106598 2.045784 4.2266693 2.045784l4.0934296 0l0 -0.82912827l-2.7240143 -0.82912827l0 -14.951357c0 -2.3251667 -0.44906616 -4.382967 -1.3472061 -6.1734066c-0.89320374 -1.7904377 -2.1959915 -3.193349 -3.908371 -4.2087297c-1.7123871 -1.0153828 -3.7504654 -1.5230742 -6.1142426 -1.5230742z" fill-rule="evenodd"/><path stroke="#e09794" stroke-width="1.0" stroke-linejoin="round" stroke-linecap="butt" d="m97.78363 1.0262456l0 0.82912886l2.7240143 0.8381413l0 35.43625l-2.7240143 0.82912827l0 0.82912827l12.731827 0l0 -0.82912827l-2.7314224 -0.82912827l0 -32.11973c0 -3.3225234 -1.3644791 -4.9837856 -4.0934296 -4.9837856z" fill-rule="evenodd"/><path fill="#192a51" d="m118.25722 6.0131235l0 0c0 -2.7541761 2.2327042 -4.986877 4.9868774 -4.986877l0.3622055 0l0 0l8.023628 0l13.734894 0c1.3226013 0 2.591034 0.5254016 3.5262604 1.4606224c0.93522644 0.9352207 1.4606171 2.2036521 1.4606171 3.5262544l0 12.467191l0 0l0 7.480316l0 0c0 2.7541752 -2.2326965 4.9868755 -4.9868774 4.9868755l-13.734894 0l-3.1085663 9.720821l-4.915062 -9.720821l-0.3622055 0c-2.7541733 0 -4.9868774 -2.2327003 -4.9868774 -4.9868755l0 0l0 -7.480316l0 0z" fill-rule="evenodd"/><path stroke="#192a51" stroke-width="1.0" stroke-linejoin="round" stroke-linecap="butt" d="m118.25722 6.0131235l0 0c0 -2.7541761 2.2327042 -4.986877 4.9868774 -4.986877l0.3622055 0l0 0l8.023628 0l13.734894 0c1.3226013 0 2.591034 0.5254016 3.5262604 1.4606224c0.93522644 0.9352207 1.4606171 2.2036521 1.4606171 3.5262544l0 12.467191l0 0l0 7.480316l0 0c0 2.7541752 -2.2326965 4.9868755 -4.9868774 4.9868755l-13.734894 0l-3.1085663 9.720821l-4.915062 -9.720821l-0.3622055 0c-2.7541733 0 -4.9868774 -2.2327003 -4.9868774 -4.9868755l0 0l0 -7.480316l0 0z" fill-rule="evenodd"/></g></svg>