<?xml version="1.0" encoding="UTF-8" standalone="no"?>
<!DOCTYPE svg PUBLIC "-//W3C//DTD SVG 1.1//EN" "http://www.w3.org/Graphics/SVG/1.1/DTD/svg11.dtd">
<svg xmlns="http://www.w3.org/2000/svg" xmlns:xlink="http://www.w3.org/1999/xlink" version="1.1" width="468.02pt" height="93.7324pt" viewBox="0 0 468.02 93.7324">
<g enable-background="new">
<g id="Layer-1" data-name="Layer">
</g>
<g id="Layer-1" data-name="Layer">
<clipPath id="cp0">
<path transform="matrix(1,0,0,-1,0,93.7324)" d="M 0 93.732 L 468.02 93.732 L 468.02 0 L 0 0 Z "/>
</clipPath>
<g clip-path="url(#cp0)">
<symbol id="font_1_2">
<path d="M .62100008 .572 C .536 .661 .45700003 .699 .354 .699 C .158 .699 0 .543 0 .349 C 0 .156 .158 0 .355 0 C .458 0 .53700008 .037 .62500008 .12900001 L .53000006 .21800001 C .465 .149 .42000003 .125 .354 .125 C .23200001 .125 .135 .224 .135 .349 C .135 .476 .23 .574 .35300002 .574 C .42000003 .574 .465 .55 .52700009 .48200003 L .62100008 .572 Z "/>
</symbol>
<symbol id="font_1_1">
<path d="M 0 .118 L 0 0 L .24000003 0 L .24000003 .118 L 0 .118 Z "/>
</symbol>
<symbol id="font_1_5">
<path d="M .456 .567 C .39900003 .66 .338 .699 .24700003 .699 C .123 .699 .029000001 .614 .029000001 .501 C .029000001 .418 .079 .358 .18000002 .319 L .23800002 .29700003 C .30400003 .272 .328 .25 .328 .216 C .328 .165 .286 .124000009 .23200001 .124000009 C .20100002 .124000009 .17500001 .13800001 .15700002 .164 C .14700002 .178 .14100002 .19500001 .13000001 .24000001 L 0 .20500002 C .013000002 .14700002 .027 .11400001 .053000004 .080000009 C .092 .031000002 .15900001 0 .23100002 0 C .361 0 .462 .095000009 .462 .21800001 C .462 .305 .409 .36600004 .296 .409 L .23400001 .432 C .18600002 .45000003 .16200002 .47300003 .16200002 .5 C .16200002 .543 .19700001 .575 .24400003 .575 C .286 .575 .307 .559 .347 .49800004 L .456 .567 Z "/>
</symbol>
<symbol id="font_1_3">
<path d="M 0 .66700008 L 0 0 L .37300004 0 L .37300004 .124000009 L .133 .124000009 L .133 .66700008 L 0 .66700008 Z "/>
</symbol>
<symbol id="font_1_4">
<path d="M .133 .24200002 L .158 .24200002 C .22300002 .24200002 .26700003 .25100003 .303 .272 C .365 .307 .40300004 .377 .40300004 .455 C .40300004 .53300008 .365 .60200008 .303 .637 C .26700003 .65800008 .22300002 .66700008 .158 .66700008 L 0 .66700008 L 0 0 L .133 0 L .133 .24200002 M .133 .363 L .133 .545 L .16700001 .545 C .24000001 .545 .273 .517 .273 .45400004 C .273 .39100004 .24000001 .363 .16700001 .363 L .133 .363 Z "/>
</symbol>
<use xlink:href="#font_1_2" transform="matrix(74.9993,0,0,-75,98.24338,63.7122)" fill="#645550"/>
<use xlink:href="#font_1_2" transform="matrix(74.9993,0,0,-75,146.88042,63.7122)" fill="#645550"/>
<use xlink:href="#font_1_2" transform="matrix(74.9993,0,0,-75,195.51746,63.7122)" fill="#645550"/>
<use xlink:href="#font_1_1" transform="matrix(74.9993,0,0,-75,242.62451,43.537199)" fill="#645550"/>
<use xlink:href="#font_1_5" transform="matrix(74.9993,0,0,-75,264.33683,63.7122)" fill="#645550"/>
<use xlink:href="#font_1_3" transform="matrix(74.9993,0,0,-75,306.39646,62.5122)" fill="#645550"/>
<use xlink:href="#font_1_4" transform="matrix(74.9993,0,0,-75,338.57868,62.5122)" fill="#645550"/>
<symbol id="font_2_3">
<path d="M .172 .172 L .45800004 .172 L .521 0 L .63100007 0 L .379 .66700008 L .25100003 .66700008 L 0 0 L .109000008 0 L .172 .172 M .20700002 .268 L .31500004 .559 L .42200003 .268 L .20700002 .268 Z "/>
</symbol>
<symbol id="font_2_8">
<path d="M .43000005 .573 C .37800003 .65900006 .32000003 .69500008 .23500002 .69500008 C .117000009 .69500008 .028000005 .614 .028000005 .50600007 C .028000005 .42600004 .075 .36900003 .17200002 .331 L .23300001 .308 C .30800004 .279 .33500005 .252 .33500005 .209 C .33500005 .146 .28500004 .097 .22000003 .097 C .16 .097 .123 .13100001 .10500001 .20300001 L .101 .21900001 L 0 .192 C .012000002 .139 .025000003 .109000008 .049000004 .078 C .08800001 .029000001 .15 0 .21900001 0 C .34300003 0 .44000004 .092 .44000004 .21000001 C .44000004 .294 .38900004 .35200004 .279 .39400003 L .21600002 .41900004 C .15800002 .441 .13100001 .469 .13100001 .50500008 C .13100001 .558 .17500001 .59800007 .23200003 .59800007 C .28000004 .59800007 .307 .579 .34600003 .52000007 L .43000005 .573 Z "/>
</symbol>
<symbol id="font_2_5">
<path d="M 0 .66700008 L 0 0 L .103999998 0 L .103999998 .29000003 L .4 .29000003 L .4 0 L .504 0 L .504 .66700008 L .4 .66700008 L .4 .386 L .103999998 .386 L .103999998 .66700008 L 0 .66700008 Z "/>
</symbol>
<symbol id="font_2_1">
<path d="M -2147483500 -2147483500 Z "/>
</symbol>
<symbol id="font_2_4">
<path d="M .605 .57600006 C .524 .66 .44700004 .69500008 .349 .69500008 C .15500002 .69500008 0 .54 0 .347 C 0 .154 .15500002 0 .35000003 0 C .44900004 0 .523 .035000005 .608 .120000008 L .535 .191 C .512 .16700001 .503 .15900001 .492 .15 C .45000003 .115 .40100003 .098000008 .34800003 .098000008 C .21200001 .098000008 .105000007 .208 .105000007 .347 C .105000007 .48800005 .21100001 .597 .34800003 .597 C .42000003 .597 .469 .573 .532 .50600007 L .605 .57600006 Z "/>
</symbol>
<symbol id="font_2_c">
<path d="M .43800003 .19700001 L .43800003 .22500001 C .43800003 .368 .34700004 .47100003 .22100002 .47100003 C .097 .47100003 0 .367 0 .23500002 C 0 .101 .098000008 0 .22700003 0 C .316 0 .38400004 .042000005 .43400003 .126 L .34800003 .162 C .34600003 .15900001 .34500004 .157 .344 .155 C .34100003 .15100001 .33900003 .148 .33900003 .147 C .316 .112 .27400003 .09 .22700003 .09 C .16200002 .09 .11600001 .12900001 .103000018 .19700001 L .43800003 .19700001 M .103000018 .27400003 C .11700001 .342 .16100002 .38200004 .222 .38200004 C .28000004 .38200004 .321 .344 .33900003 .27400003 L .103000018 .27400003 Z "/>
</symbol>
<symbol id="font_2_15">
<path d="M 0 .44300003 L 0 0 L .1 0 L .1 .21300002 C .1 .266 .10400001 .29200004 .116000007 .31500004 C .13 .34 .15900001 .35500003 .19700003 .35500003 C .20700002 .35500003 .21200001 .35500003 .23200003 .354 L .23200003 .44300003 C .21500004 .44400005 .20700002 .44500003 .19500003 .44500003 C .15600002 .44500003 .137 .43800003 .1 .407 L .1 .44300003 L 0 .44300003 Z "/>
</symbol>
<symbol id="font_2_17">
<path d="M .21700001 .451 L .148 .451 L .148 .58900007 L .048 .549 L .048 .451 L 0 .451 L 0 .361 L .048 .361 L .048 .148 C .048 .053000004 .09 0 .164 0 C .18100001 0 .19900002 .003 .224 .010000001 L .224 .10300001 C .19800002 .09600001 .18800001 .094000007 .177 .094000007 C .157 .094000007 .148 .11000001 .148 .148 L .148 .361 L .21700001 .361 L .21700001 .451 Z "/>
</symbol>
<symbol id="font_2_10">
<path d="M .115 .44300003 L .015000001 .44300003 L .015000001 0 L .115 0 L .115 .44300003 M .064 .657 C .029 .657 0 .628 0 .59400007 C 0 .558 .027999998 .52900007 .065000008 .52900007 C .1 .52900007 .12900001 .558 .12900001 .59300008 C .12900001 .629 .1 .657 .064 .657 Z "/>
</symbol>
<symbol id="font_2_d">
<path d="M .22 .35300002 L .22 .44300003 L .143 .44300003 L .143 .527 C .143 .56600007 .155 .58400008 .18 .58400008 C .19 .58400008 .202 .582 .21900001 .577 L .21900001 .66700008 C .19600001 .67300006 .18 .675 .161 .675 C .08500001 .675 .043000007 .62200006 .043000007 .527 L .043000007 .44300003 L 0 .44300003 L 0 .35300002 L .043000007 .35300002 L .043000007 0 L .143 0 L .143 .35300002 L .22 .35300002 Z "/>
</symbol>
<symbol id="font_2_b">
<path d="M .46100004 .014 L .46100004 .68100008 L .36100004 .68100008 L .36100004 .41900004 C .31300003 .455 .272 .47100003 .224 .47100003 C .10200001 .47100003 0 .36400003 0 .23600002 C 0 .107 .10200001 0 .22500003 0 C .27300004 0 .314 .016 .36100004 .052 L .36100004 .014 L .46100004 .014 M .23400003 .38000003 C .30900003 .38000003 .36100004 .32000003 .36100004 .23400001 C .36100004 .15 .30800004 .09 .23200003 .09 C .15500002 .09 .10100001 .15 .10100001 .23600002 C .10100001 .32200004 .15500002 .38000003 .23400003 .38000003 Z "/>
</symbol>
<symbol id="font_2_14">
<path d="M 0 .676 L 0 0 L .1 0 L .1 .27100004 C .148 .23500002 .18900001 .21900001 .23700002 .21900001 C .35900004 .21900001 .46100004 .326 .46100004 .45400004 C .46100004 .58300009 .35900004 .69000008 .23600003 .69000008 C .18800003 .69000008 .14700002 .674 .1 .638 L .1 .676 L 0 .676 M .22900003 .6 C .30600003 .6 .36 .54 .36 .45500005 C .36 .36800004 .30600003 .30900003 .22700003 .30900003 C .15200001 .30900003 .1 .36900003 .1 .45500005 C .1 .54 .153 .6 .22900003 .6 Z "/>
</symbol>
<symbol id="font_2_a">
<path d="M .41600005 .384 C .358 .446 .305 .47100003 .23400003 .47100003 C .10200001 .47100003 0 .36900003 0 .23600002 C 0 .102000009 .10200001 0 .23500002 0 C .307 0 .36100004 .026 .41900004 .09 L .35300002 .155 C .312 .107 .282 .09 .23500002 .09 C .15500002 .09 .10100001 .149 .10100001 .23600002 C .10100001 .323 .15500002 .381 .23500002 .381 C .28000004 .381 .30600003 .367 .35000003 .32000003 L .41600005 .384 Z "/>
</symbol>
<symbol id="font_2_f">
<path d="M 0 .66700008 L 0 0 L .1 0 L .1 .22200002 C .1 .27400003 .10400001 .29900003 .117000009 .321 C .13100001 .34800003 .16600001 .365 .20300001 .365 C .23900002 .365 .268 .35000003 .28100003 .326 C .293 .30400003 .29700003 .279 .29700003 .231 L .29700003 0 L .397 0 L .397 .23900001 C .397 .298 .38900004 .33800004 .37000004 .37 C .34000004 .423 .27800004 .45700003 .21200001 .45700003 C .16800002 .45700003 .132 .44200004 .1 .411 L .1 .66700008 L 0 .66700008 Z "/>
</symbol>
<symbol id="font_2_2">
<path d="M 0 .09099999 L 0 0 L .21800003 0 L .21800003 .09099999 L 0 .09099999 Z "/>
</symbol>
<symbol id="font_2_6">
<path d="M .103999998 .66700008 L 0 .66700008 L 0 0 L .35300002 0 L .35300002 .096 L .103999998 .096 L .103999998 .66700008 Z "/>
</symbol>
<symbol id="font_2_9">
<path d="M .46100004 .014 L .46100004 .45700003 L .36100004 .45700003 L .36100004 .41900004 C .31300003 .455 .272 .47100003 .224 .47100003 C .10200001 .47100003 0 .36400003 0 .23600002 C 0 .107 .10200001 0 .22500003 0 C .27300004 0 .314 .016 .36100004 .052 L .36100004 .014 L .46100004 .014 M .23500002 .381 C .30900003 .381 .36300005 .32000003 .36300005 .23600002 C .36300005 .15 .30900003 .09 .23300001 .09 C .15500002 .09 .10100001 .15 .10100001 .237 C .10100001 .323 .15500002 .381 .23500002 .381 Z "/>
</symbol>
<symbol id="font_2_12">
<path d="M 0 .44300003 L 0 0 L .1 0 L .1 .22200002 C .1 .27400003 .10400001 .29900003 .117000009 .321 C .13100001 .34800003 .16600001 .365 .20300001 .365 C .23900002 .365 .268 .35000003 .28100003 .326 C .293 .30400003 .29700003 .279 .29700003 .231 L .29700003 0 L .397 0 L .397 .23900001 C .397 .298 .38900004 .33800004 .37000004 .37 C .34000004 .423 .27800004 .45700003 .21300003 .45700003 C .16800002 .45700003 .132 .44200004 .1 .411 L .1 .44300003 L 0 .44300003 Z "/>
</symbol>
<symbol id="font_2_e">
<path d="M .46100004 .69000008 L .36100004 .69000008 L .36100004 .65200009 C .32000003 .688 .279 .704 .229 .704 C .10200001 .704 0 .59900006 0 .46900005 C 0 .338 .10200001 .23300001 .229 .23300001 C .279 .23300001 .323 .25 .36100004 .28500004 L .36100004 .238 C .36100004 .14500001 .31000004 .09 .222 .09 C .165 .09 .135 .106000009 .088 .16 C .08400001 .164 .08 .169 .076000008 .174 L .011 .109 C .034 .082 .042 .073 .052000006 .063999999 C .097 .023000002 .158 0 .224 0 C .365 0 .46100004 .096 .46100004 .238 L .46100004 .69000008 M .23500002 .614 C .31000004 .614 .36200003 .554 .36200003 .467 C .36200003 .38300003 .30800004 .323 .23300001 .323 C .15500002 .323 .10100001 .38300003 .10100001 .47000004 C .10100001 .556 .15500002 .614 .23500002 .614 Z "/>
</symbol>
<symbol id="font_2_18">
<path d="M .397 .014 L .397 .45700003 L .29700003 .45700003 L .29700003 .23600002 C .29700003 .184 .293 .157 .28000004 .135 C .26600004 .109000008 .231 .092 .194 .092 C .15800002 .092 .12900001 .107 .116000007 .13100001 C .10400001 .15300001 .1 .178 .1 .22600001 L .1 .45700003 L 0 .45700003 L 0 .21800001 C 0 .15900001 .008000001 .119 .027000003 .087000008 C .057000005 .034 .11900001 0 .185 0 C .22900003 0 .26500003 .015000001 .29700003 .046000005 L .29700003 .014 L .397 .014 Z "/>
</symbol>
<symbol id="font_2_7">
<path d="M 0 .66700008 L 0 0 L .103999998 0 L .103999998 .25800003 L .148 .25800003 C .21200001 .25800003 .254 .26700003 .289 .286 C .34800003 .32000003 .38500003 .388 .38500003 .46300004 C .38500003 .53800007 .349 .605 .289 .63900008 C .255 .65800008 .21200001 .66700008 .148 .66700008 L 0 .66700008 M .103999998 .35200004 L .103999998 .572 L .15600002 .572 C .19299999 .572 .21700001 .56700006 .236 .55700007 C .26500003 .54 .283 .505 .283 .46300004 C .283 .43300004 .273 .40300004 .257 .384 C .238 .363 .20500002 .35200004 .15600002 .35200004 L .103999998 .35200004 Z "/>
</symbol>
<symbol id="font_2_13">
<path d="M .236 .47100003 C .10200001 .47100003 0 .36900003 0 .23600002 C 0 .103 .10200001 0 .23300001 0 C .36400003 0 .46600003 .103 .46600003 .23600002 C .46600003 .367 .36400003 .47100003 .236 .47100003 M .23500002 .381 C .31100003 .381 .365 .32000003 .365 .23600002 C .365 .15 .31100003 .09 .23300001 .09 C .15500002 .09 .10100001 .15 .10100001 .237 C .10100001 .323 .15500002 .381 .23500002 .381 Z "/>
</symbol>
<symbol id="font_2_11">
<path d="M .1 0 L .1 .66700008 L 0 .66700008 L 0 0 L .1 0 Z "/>
</symbol>
<symbol id="font_2_16">
<path d="M 0 .13000001 C .033 .041 .087000008 0 .16700001 0 C .259 0 .32900004 .065000008 .32900004 .149 C .32900004 .20500002 .29700003 .24100001 .223 .27 L .18100001 .286 C .128 .307 .118 .31500004 .118 .338 C .118 .365 .14 .38300003 .17300001 .38300003 C .202 .38300003 .22000002 .37100003 .24400002 .335 L .32200004 .374 C .287 .44000004 .24000001 .47100003 .17400001 .47100003 C .08800001 .47100003 .023000002 .41200004 .023000002 .335 C .023000002 .28 .055 .24000001 .120000008 .216 L .165 .19800002 C .21700001 .178 .229 .16800002 .229 .14500001 C .229 .112 .20400001 .09 .16800002 .09 C .13100001 .09 .11 .108 .082 .163 L 0 .13000001 Z "/>
</symbol>
<use xlink:href="#font_2_3" transform="matrix(20,0,0,-20,100.0684,88.5122)" fill="#645550"/>
<use xlink:href="#font_2_8" transform="matrix(20,0,0,-20,113.1304,88.7922)" fill="#645550"/>
<use xlink:href="#font_2_5" transform="matrix(20,0,0,-20,124.21439,88.5122)" fill="#645550"/>
<use xlink:href="#font_2_3" transform="matrix(20,0,0,-20,135.6884,88.5122)" fill="#645550"/>
<use xlink:href="#font_2_1" transform="matrix(20,0,0,-20,42949670000,-42949670000)" fill="#645550"/>
<use xlink:href="#font_2_4" transform="matrix(20,0,0,-20,153.78839,88.7922)" fill="#645550"/>
<use xlink:href="#font_2_c" transform="matrix(20,0,0,-20,166.90239,88.7922)" fill="#645550"/>
<use xlink:href="#font_2_15" transform="matrix(20,0,0,-20,177.34238,88.5122)" fill="#645550"/>
<use xlink:href="#font_2_17" transform="matrix(20,0,0,-20,182.80239,88.6722)" fill="#645550"/>
<use xlink:href="#font_2_10" transform="matrix(20,0,0,-20,188.47438,88.5122)" fill="#645550"/>
<use xlink:href="#font_2_d" transform="matrix(20,0,0,-20,192.32639,88.5122)" fill="#645550"/>
<use xlink:href="#font_2_10" transform="matrix(20,0,0,-20,197.79238,88.5122)" fill="#645550"/>
<use xlink:href="#font_2_c" transform="matrix(20,0,0,-20,201.67638,88.7922)" fill="#645550"/>
<use xlink:href="#font_2_b" transform="matrix(20,0,0,-20,211.57637,88.7922)" fill="#645550"/>
<use xlink:href="#font_2_1" transform="matrix(20,0,0,-20,42949670000,-42949670000)" fill="#645550"/>
<use xlink:href="#font_2_8" transform="matrix(20,0,0,-20,227.35637,88.7922)" fill="#645550"/>
<use xlink:href="#font_2_14" transform="matrix(20,0,0,-20,238.09236,93.1722)" fill="#645550"/>
<use xlink:href="#font_2_c" transform="matrix(20,0,0,-20,248.45236,88.7922)" fill="#645550"/>
<use xlink:href="#font_2_c" transform="matrix(20,0,0,-20,258.35237,88.7922)" fill="#645550"/>
<use xlink:href="#font_2_a" transform="matrix(20,0,0,-20,268.25236,88.7922)" fill="#645550"/>
<use xlink:href="#font_2_f" transform="matrix(20,0,0,-20,277.96437,88.5122)" fill="#645550"/>
<use xlink:href="#font_2_2" transform="matrix(20,0,0,-20,287.61436,83.172199)" fill="#645550"/>
<use xlink:href="#font_2_6" transform="matrix(20,0,0,-20,294.35438,88.5122)" fill="#645550"/>
<use xlink:href="#font_2_9" transform="matrix(20,0,0,-20,302.07038,88.7922)" fill="#645550"/>
<use xlink:href="#font_2_12" transform="matrix(20,0,0,-20,313.4744,88.5122)" fill="#645550"/>
<use xlink:href="#font_2_e" transform="matrix(20,0,0,-20,322.99443,93.4522)" fill="#645550"/>
<use xlink:href="#font_2_18" transform="matrix(20,0,0,-20,334.36244,88.7922)" fill="#645550"/>
<use xlink:href="#font_2_9" transform="matrix(20,0,0,-20,343.94847,88.7922)" fill="#645550"/>
<use xlink:href="#font_2_e" transform="matrix(20,0,0,-20,354.81648,93.4522)" fill="#645550"/>
<use xlink:href="#font_2_c" transform="matrix(20,0,0,-20,365.7165,88.7922)" fill="#645550"/>
<use xlink:href="#font_2_1" transform="matrix(20,0,0,-20,42949670000,-42949670000)" fill="#645550"/>
<use xlink:href="#font_2_7" transform="matrix(20,0,0,-20,381.2765,88.5122)" fill="#645550"/>
<use xlink:href="#font_2_9" transform="matrix(20,0,0,-20,389.41648,88.7922)" fill="#645550"/>
<use xlink:href="#font_2_17" transform="matrix(20,0,0,-20,400.08848,88.6722)" fill="#645550"/>
<use xlink:href="#font_2_f" transform="matrix(20,0,0,-20,406.12849,88.5122)" fill="#645550"/>
<use xlink:href="#font_2_13" transform="matrix(20,0,0,-20,415.6485,88.7922)" fill="#645550"/>
<use xlink:href="#font_2_11" transform="matrix(20,0,0,-20,426.6485,88.5122)" fill="#645550"/>
<use xlink:href="#font_2_13" transform="matrix(20,0,0,-20,430.30848,88.7922)" fill="#645550"/>
<use xlink:href="#font_2_e" transform="matrix(20,0,0,-20,440.72447,93.4522)" fill="#645550"/>
<use xlink:href="#font_2_10" transform="matrix(20,0,0,-20,451.84449,88.5122)" fill="#645550"/>
<use xlink:href="#font_2_16" transform="matrix(20,0,0,-20,455.63249,88.7922)" fill="#645550"/>
<use xlink:href="#font_2_17" transform="matrix(20,0,0,-20,463.09248,88.6722)" fill="#645550"/>
<path transform="matrix(1,0,0,-1,32.6494,5.268997)" d="M 0 0 C -4.369 0 -8.534 -.865 -12.342 -2.421 L -10.629 -3.418 C -9.258 -4.454 -7.884 -5.516 -6.789 -6.841 C -4.942 -9.077 -4.546 -11.96 -3.732 -14.648 C -3.032 -16.961 -2.37 -18.764 -.08 -19.901 C 1.109 -20.491 2.404 -20.919 3.415 -21.778 C 3.691 -22.012 3.951 -22.291 4.047 -22.639 C 4.179 -23.117 3.976 -23.63 3.68 -24.028 C 3.385 -24.427 3 -24.751 2.692 -25.14 C 1.447 -26.717 2.498 -27.439 3.39 -28.643 C 4.265 -29.826 3.924 -30.323 3.132 -31.344 C 2.895 -31.651 2.72 -32.032 2.761 -32.418 C 2.873 -33.462 4.445 -33.109 5.004 -33.91 C 5.408 -34.488 5.15 -35.276 4.885 -35.93 C 4.807 -36.123 4.727 -36.324 4.737 -36.532 C 4.753 -36.842 4.962 -37.104 5.144 -37.355 C 5.806 -38.271 6.245 -39.928 6.355 -41.039 C 6.438 -41.882 6.225 -42.799 5.599 -43.371 C 5.231 -43.706 4.757 -43.896 4.288 -44.061 C 2.315 -44.755 .161 -44.732 -1.786 -45.473 C -7.332 -47.584 -9.371 -53.713 -9.377 -59.127 C -9.379 -60.808 -9.339 -62.544 -8.75 -64.104 C -5.964 -64.876 -3.032 -65.299 0 -65.299 C 18.032 -65.299 32.649 -50.681 32.649 -32.649 C 32.649 -14.618 18.032 0 0 0 " fill="#00778b"/>
<path transform="matrix(1,0,0,-1,30.8633,50.7422)" d="M 0 0 C 1.947 .741 4.102 .718 6.074 1.412 C 6.543 1.577 7.018 1.767 7.385 2.103 C 8.011 2.674 8.225 3.591 8.141 4.434 C 8.031 5.545 7.592 7.203 6.93 8.118 C 6.748 8.37 6.539 8.631 6.523 8.941 C 6.513 9.149 6.593 9.351 6.671 9.543 C 6.936 10.197 7.194 10.985 6.791 11.563 C 6.231 12.364 4.659 12.011 4.547 13.055 C 4.506 13.441 4.681 13.822 4.918 14.129 C 5.71 15.15 6.051 15.647 5.176 16.83 C 4.284 18.034 3.233 18.756 4.478 20.333 C 4.786 20.722 5.171 21.046 5.466 21.445 C 5.762 21.843 5.965 22.356 5.833 22.834 C 5.737 23.183 5.477 23.461 5.201 23.695 C 4.19 24.554 2.895 24.982 1.707 25.572 C -.584 26.709 -1.246 28.512 -1.946 30.825 C -2.76 33.513 -3.156 36.396 -5.003 38.632 C -6.098 39.957 -7.472 41.019 -8.843 42.055 L -10.556 43.052 C -10.542 43.042 -8.665 41.859 -8.195 39.747 C -7.724 37.626 -7.82 34.928 -7.69 31.491 C -7.527 27.187 -1.096 22.408 -.99 19.766 C -.86 16.533 -5.007 17.868 -4.979 14.899 C -4.97 14.008 -4.647 12.748 -4.586 11.827 C -4.521 10.847 -5.277 9.456 -6.22 9.736 C -5.43 9.501 -4.813 8.555 -4.917 7.751 C -5.039 6.806 -6.003 6.352 -6.395 5.544 C -6.959 4.383 -5.986 3.183 -5.65 2.1 C -4.811 -.609 -5.744 -3.089 -8.572 -4.125 C -11.057 -5.036 -13.333 -4.831 -14.831 -7.74 C -16.034 -10.076 -14.993 -13.993 -14.535 -15.449 C -12.181 -16.811 -9.642 -17.887 -6.963 -18.63 C -7.553 -17.071 -7.593 -15.335 -7.591 -13.654 C -7.585 -8.24 -5.546 -2.111 0 0 " fill="#ffffff"/>
<path transform="matrix(1,0,0,-1,54.2407,46.996599)" d="M 0 0 C -.797 0 -.931 .489 -1.224 7.923 C -1.261 8.88 -1.298 9.827 -1.339 10.688 C -1.463 13.271 -1.696 18.155 -2.024 20.138 C -2.334 18.365 -2.559 14.279 -2.679 12.101 C -2.72 11.355 -2.758 10.539 -2.795 9.715 C -3.08 3.503 -3.206 2.792 -4.022 2.792 C -4.845 2.792 -4.977 3.759 -5.232 8.268 C -5.269 8.917 -5.304 9.551 -5.344 10.112 C -5.573 13.344 -5.803 15.457 -6.032 16.421 C -6.21 15.719 -6.434 14.236 -6.686 11.241 C -6.717 10.866 -6.749 10.457 -6.781 10.036 C -7.097 5.891 -7.239 5.002 -8.029 5.002 C -8.845 5.002 -8.986 6.119 -9.253 8.87 C -9.286 9.207 -9.317 9.53 -9.349 9.818 C -9.613 12.207 -9.853 13.278 -10.019 13.757 C -10.189 13.335 -10.449 12.45 -10.693 10.659 C -11.134 7.393 -11.352 6.856 -11.874 6.708 L -11.947 6.687 L -12.023 6.687 C -12.781 6.687 -13.042 7.72 -13.344 8.916 C -13.476 9.44 -13.782 10.655 -14.024 10.655 C -14.176 10.625 -14.524 10.161 -14.721 9.719 C -14.843 9.444 -15.164 9.32 -15.439 9.442 C -15.714 9.563 -15.839 9.884 -15.718 10.159 C -15.554 10.531 -14.947 11.744 -14.024 11.744 C -12.933 11.744 -12.605 10.444 -12.289 9.188 C -12.25 9.031 -12.189 8.792 -12.121 8.551 C -11.974 9.311 -11.838 10.314 -11.772 10.805 C -11.181 15.145 -10.397 15.145 -10.02 15.145 C -9.222 15.145 -8.756 14.366 -8.267 9.938 C -8.234 9.645 -8.202 9.317 -8.169 8.976 C -8.139 8.667 -8.101 8.273 -8.056 7.87 C -7.98 8.634 -7.916 9.475 -7.867 10.119 C -7.834 10.543 -7.803 10.955 -7.771 11.333 C -7.289 17.063 -6.927 17.98 -6.015 17.98 C -5.139 17.98 -4.761 17.309 -4.257 10.188 C -4.217 9.623 -4.182 8.984 -4.145 8.329 C -4.116 7.82 -4.083 7.231 -4.043 6.647 C -3.979 7.688 -3.927 8.827 -3.884 9.765 C -3.846 10.593 -3.808 11.412 -3.767 12.161 C -3.274 21.105 -3.013 21.948 -2.01 21.948 C -1.003 21.948 -.741 20.982 -.251 10.74 C -.21 9.875 -.173 8.926 -.135 7.965 C -.093 6.904 -.045 5.692 .012 4.572 C .054 5.366 .09 6.174 .122 6.869 C .159 7.722 .197 8.564 .239 9.328 C .445 13.055 .638 15.461 .846 16.903 C 1.02 18.112 1.227 19.114 1.997 19.114 C 2.835 19.114 3.255 18.404 3.754 11.609 C 3.783 11.225 3.811 10.813 3.84 10.39 C 3.906 9.434 3.997 8.121 4.105 7.064 C 4.125 7.223 4.143 7.368 4.157 7.488 C 4.191 7.776 4.223 8.044 4.255 8.263 C 4.628 10.787 4.853 12.311 6.009 12.311 C 6.945 12.311 7.378 11.575 7.665 11.088 C 7.736 10.967 7.926 10.646 8.007 10.61 C 8.308 10.61 8.556 10.367 8.556 10.065 C 8.556 9.765 8.316 9.521 8.016 9.521 C 7.325 9.521 6.994 10.083 6.727 10.534 C 6.461 10.984 6.303 11.205 6.039 11.221 C 5.753 10.947 5.501 9.241 5.333 8.104 C 5.302 7.894 5.271 7.636 5.239 7.36 C 5.027 5.581 4.888 4.405 4.05 4.405 C 3.269 4.405 3.111 5.123 2.753 10.315 C 2.725 10.736 2.696 11.146 2.668 11.529 C 2.424 14.85 2.196 16.522 2.018 17.354 C 1.786 16.092 1.554 13.384 1.327 9.268 C 1.285 8.508 1.247 7.669 1.209 6.821 C .937 .701 .812 0 0 0 " fill="#ffffff"/>
<path transform="matrix(1,0,0,-1,23.1728,19.251397)" d="M 0 0 C -.13 3.437 -.034 6.135 -.505 8.256 C -.974 10.368 -2.851 11.552 -2.866 11.561 C -13.875 7.061 -21.876 -3.274 -23.025 -15.602 C -22.118 -15.68 -21.761 -16.867 -21.475 -17.831 C -21.433 -17.972 -21.392 -18.11 -21.351 -18.237 C -21.283 -18.448 -21.23 -18.677 -21.179 -18.899 C -21.141 -19.062 -21.089 -19.284 -21.033 -19.468 C -20.926 -19.168 -20.818 -18.76 -20.749 -18.498 C -20.708 -18.341 -20.667 -18.19 -20.628 -18.052 C -20.264 -16.775 -19.852 -15.328 -18.853 -15.328 C -18.594 -15.328 -17.905 -15.328 -17.285 -18.231 L -17.222 -18.533 C -17.151 -18.875 -17.004 -19.585 -16.84 -20.102 C -16.648 -19.226 -16.461 -17.8 -16.386 -17.227 C -15.986 -14.188 -15.767 -12.515 -14.588 -12.515 C -13.613 -12.515 -13.178 -13.857 -12.864 -17.834 C -12.848 -18.033 -12.831 -18.305 -12.811 -18.625 C -12.759 -19.454 -12.622 -21.638 -12.392 -22.721 C -12.227 -22.141 -12.026 -20.977 -11.846 -18.661 C -11.832 -18.481 -11.82 -18.334 -11.811 -18.229 C -11.783 -17.929 -11.517 -17.708 -11.219 -17.736 C -10.919 -17.763 -10.698 -18.028 -10.726 -18.328 C -10.735 -18.43 -10.746 -18.572 -10.759 -18.745 C -11.085 -22.933 -11.498 -24.277 -12.456 -24.277 C -13.333 -24.277 -13.617 -23.181 -13.898 -18.692 C -13.918 -18.38 -13.935 -18.114 -13.95 -17.92 C -14.174 -15.079 -14.446 -14.076 -14.618 -13.723 C -14.898 -14.27 -15.131 -16.038 -15.305 -17.368 C -15.781 -20.988 -16.019 -21.72 -16.721 -21.72 C -17.605 -21.72 -17.929 -20.491 -18.289 -18.753 L -18.351 -18.458 C -18.557 -17.494 -18.782 -16.881 -18.935 -16.572 C -19.192 -16.988 -19.476 -17.983 -19.58 -18.351 C -19.618 -18.482 -19.656 -18.627 -19.696 -18.777 C -19.989 -19.881 -20.241 -20.835 -20.986 -20.835 C -21.848 -20.835 -22.065 -19.898 -22.24 -19.146 C -22.289 -18.936 -22.334 -18.737 -22.389 -18.569 C -22.431 -18.435 -22.474 -18.291 -22.519 -18.141 C -22.633 -17.757 -22.893 -16.887 -23.109 -16.706 C -23.147 -17.355 -23.173 -18.008 -23.173 -18.667 C -23.173 -30.751 -16.603 -41.294 -6.845 -46.939 C -7.303 -45.483 -8.344 -41.566 -7.141 -39.231 C -5.642 -36.322 -3.367 -36.527 -.881 -35.616 C 1.947 -34.58 2.879 -32.1 2.04 -29.391 C 1.705 -28.308 .731 -27.108 1.295 -25.946 C 1.687 -25.139 2.651 -24.685 2.773 -23.74 C 2.877 -22.936 2.261 -21.99 1.471 -21.755 C 2.413 -22.035 3.169 -20.644 3.104 -19.664 C 3.043 -18.743 2.721 -17.482 2.712 -16.591 C 2.683 -13.623 6.83 -14.958 6.7 -11.725 C 6.594 -9.083 .163 -4.304 0 0 " fill="#bfb8af"/>
<path transform="matrix(1,0,0,-1,.7841,37.820299)" d="M 0 0 C .054 -.168 .1 -.367 .149 -.577 C .324 -1.33 .541 -2.267 1.403 -2.267 C 2.147 -2.267 2.4 -1.312 2.693 -.208 C 2.732 -.059 2.771 .086 2.809 .218 C 2.913 .586 3.197 1.581 3.454 1.997 C 3.606 1.687 3.832 1.075 4.038 .11 L 4.1 -.185 C 4.46 -1.922 4.783 -3.151 5.668 -3.151 C 6.37 -3.151 6.607 -2.419 7.083 1.201 C 7.258 2.531 7.49 4.299 7.771 4.846 C 7.942 4.493 8.214 3.49 8.439 .649 C 8.454 .455 8.471 .188 8.49 -.124 C 8.771 -4.612 9.055 -5.708 9.933 -5.708 C 10.891 -5.708 11.303 -4.364 11.629 -.176 C 11.643 -.003 11.654 .139 11.663 .241 C 11.69 .541 11.47 .806 11.17 .833 C 10.872 .861 10.605 .64 10.578 .34 C 10.569 .234 10.557 .087 10.543 -.092 C 10.363 -2.408 10.162 -3.572 9.997 -4.152 C 9.767 -3.069 9.629 -.885 9.578 -.056 C 9.558 .264 9.541 .536 9.525 .734 C 9.211 4.711 8.776 6.054 7.801 6.054 C 6.622 6.054 6.402 4.381 6.003 1.342 C 5.928 .769 5.741 -.657 5.549 -1.533 C 5.385 -1.017 5.237 -.306 5.167 .036 L 5.104 .337 C 4.483 3.241 3.795 3.241 3.536 3.241 C 2.537 3.241 2.125 1.794 1.761 .517 C 1.722 .379 1.681 .228 1.64 .071 C 1.57 -.191 1.462 -.6 1.356 -.899 C 1.299 -.715 1.248 -.493 1.21 -.331 C 1.159 -.108 1.105 .121 1.038 .332 C .997 .459 .956 .597 .914 .738 C .627 1.702 .271 2.889 -.636 2.967 C -.67 2.601 -.698 2.232 -.72 1.863 C -.504 1.682 -.244 .812 -.13 .428 C -.085 .278 -.042 .134 0 0 " fill="#ffffff"/>
<path transform="matrix(1,0,0,-1,80.1758,8.3965)" d="M 0 0 C -.13 0 -.26 .01 -.39 .04 C -.51 .06 -.64 .1 -.76 .15 C -.87 .2 -.99 .26 -1.1 .33 C -1.2 .4 -1.3 .49 -1.4 .58 C -1.49 .67 -1.57 .77 -1.64 .88 C -1.71 .98 -1.77 1.1 -1.82 1.22 C -1.87 1.34 -1.91 1.46 -1.93 1.59 C -1.96 1.71 -1.97 1.84 -1.97 1.97 C -1.97 2.1 -1.96 2.23 -1.93 2.36 C -1.91 2.48 -1.87 2.61 -1.82 2.72 C -1.77 2.84 -1.71 2.96 -1.64 3.07 C -1.57 3.17 -1.49 3.28 -1.4 3.37 C -1.3 3.46 -1.2 3.54 -1.1 3.61 C -.99 3.68 -.87 3.74 -.76 3.79 C -.64 3.84 -.51 3.88 -.39 3.9 C -.13 3.96 .13 3.96 .38 3.9 C .51 3.88 .63 3.84 .75 3.79 C .87 3.74 .99 3.68 1.09 3.61 C 1.2 3.54 1.3 3.46 1.39 3.37 C 1.49 3.28 1.57 3.17 1.64 3.07 C 1.71 2.96 1.77 2.84 1.82 2.72 C 1.87 2.61 1.91 2.48 1.93 2.36 C 1.96 2.23 1.97 2.1 1.97 1.97 C 1.97 1.84 1.96 1.71 1.93 1.59 C 1.91 1.46 1.87 1.34 1.82 1.22 C 1.77 1.1 1.71 .98 1.64 .88 C 1.57 .77 1.49 .67 1.39 .58 C 1.3 .49 1.2 .4 1.09 .33 C .99 .26 .87 .2 .75 .15 C .63 .1 .51 .06 .38 .04 C .26 .01 .13 0 0 0 " fill="#645550"/>
<path transform="matrix(1,0,0,-1,78.206,14.296402)" d="M 0 0 C 0 1.09 .88 1.97 1.97 1.97 C 3.06 1.97 3.94 1.09 3.94 0 C 3.94 -1.09 3.06 -1.97 1.97 -1.97 C .88 -1.97 0 -1.09 0 0 M 0 -7.88 C 0 -6.79 .88 -5.9 1.97 -5.9 C 3.06 -5.9 3.94 -6.79 3.94 -7.88 C 3.94 -8.96 3.06 -9.85 1.97 -9.85 C .88 -9.85 0 -8.96 0 -7.88 M 0 -15.75 C 0 -14.66 .88 -13.78 1.97 -13.78 C 3.06 -13.78 3.94 -14.66 3.94 -15.75 C 3.94 -16.84 3.06 -17.72 1.97 -17.72 C .88 -17.72 0 -16.84 0 -15.75 M 0 -23.62 C 0 -22.53 .88 -21.65 1.97 -21.65 C 3.06 -21.65 3.94 -22.53 3.94 -23.62 C 3.94 -24.71 3.06 -25.59 1.97 -25.59 C .88 -25.59 0 -24.71 0 -23.62 M 0 -31.5 C 0 -30.41 .88 -29.52 1.97 -29.52 C 3.06 -29.52 3.94 -30.41 3.94 -31.5 C 3.94 -32.58 3.06 -33.47 1.97 -33.47 C .88 -33.47 0 -32.58 0 -31.5 M 0 -39.37 C 0 -38.28 .88 -37.4 1.97 -37.4 C 3.06 -37.4 3.94 -38.28 3.94 -39.37 C 3.94 -40.46 3.06 -41.34 1.97 -41.34 C .88 -41.34 0 -40.46 0 -39.37 M 0 -47.24 C 0 -46.15 .88 -45.27 1.97 -45.27 C 3.06 -45.27 3.94 -46.15 3.94 -47.24 C 3.94 -48.33 3.06 -49.21 1.97 -49.21 C .88 -49.21 0 -48.33 0 -47.24 " fill="#645550"/>
<path transform="matrix(1,0,0,-1,80.1758,71.3867)" d="M 0 0 C -.13 0 -.26 .02 -.39 .04 C -.51 .07 -.64 .1 -.76 .15 C -.87 .2 -.99 .26 -1.1 .34 C -1.2 .41 -1.3 .49 -1.4 .58 C -1.49 .67 -1.57 .77 -1.64 .88 C -1.71 .99 -1.77 1.1 -1.82 1.22 C -1.87 1.34 -1.91 1.46 -1.93 1.59 C -1.96 1.72 -1.97 1.85 -1.97 1.98 C -1.97 2.49 -1.76 3 -1.4 3.37 C -1.3 3.46 -1.2 3.54 -1.1 3.61 C -.99 3.69 -.87 3.75 -.76 3.8 C -.64 3.84 -.51 3.88 -.39 3.91 C .25 4.04 .94 3.83 1.39 3.37 C 1.76 3 1.97 2.49 1.97 1.98 C 1.97 1.85 1.96 1.72 1.93 1.59 C 1.91 1.46 1.87 1.34 1.82 1.22 C 1.77 1.1 1.71 .99 1.64 .88 C 1.57 .77 1.49 .67 1.39 .58 C 1.3 .49 1.2 .41 1.09 .34 C .99 .26 .87 .2 .75 .15 C .63 .1 .51 .07 .38 .04 C .26 .02 .13 0 0 0 " fill="#645550"/>
</g>
</g>
</g>
</svg>
